<svg width="125" height="25" viewBox="0 0 125 25" fill="none" xmlns="http://www.w3.org/2000/svg">
<g clip-path="url(#clip0_31_3)">
<path d="M4 13V22C4 22.5523 4.44772 23 5 23H9C9.55228 23 10 22.5523 10 22V17C10 16.4477 10.4477 16 11 16H14C14.5523 16 15 16.4477 15 17V22C15 22.5523 15.4477 23 16 23H20C20.5523 23 21 22.5523 21 22V13M24 12.5L13.1912 2.16117C12.8046 1.79136 12.1954 1.79136 11.8088 2.16117L1 12.5M17 2H19C19.5523 2 20 2.44772 20 3V5.5" stroke="white"/>
<path d="M40 13.5V15.1421C40 15.6357 40.3621 16.0531 40.847 16.1453C45.2042 16.9741 46.7248 18.5828 46.9757 19.4046C46.995 19.4676 47 19.5332 47 19.599V21.5C47 22.0523 46.5523 22.5 46 22.5H29C28.4477 22.5 28 22.0523 28 21.5V19.3028C28 19.1054 28.0561 18.9104 28.1763 18.7538C29.5661 16.9415 32.216 16.2446 34.003 16.0567C34.5523 15.9989 35 15.5524 35 15.0001C35 14.5011 35 13.94 35 13.5M40 13.5C40.6667 13 42 11.7 42 10.5C42 9.73852 42 8.5341 42 7.5M40 13.5H35M35 13.5C33.4593 13.1148 32.7222 11.4624 32.5209 10.5964C32.506 10.5322 32.5 10.4672 32.5 10.4013C32.5 9.66876 32.5 8.48811 32.5 7.5M32.5 7.5C32.5 6.8625 32.5 6.30515 32.5 6C32.5 5 33.5 2 37.5 2C40.7 2 41.8333 4.66667 42 6C42 6.36544 42 6.90448 42 7.5M32.5 7.5H35.5858C35.851 7.5 36.1042 7.39384 36.2974 7.2121C36.8505 6.69163 37.6673 6 38 6C38.302 6 38.8132 6.5702 39.1889 7.06475C39.3912 7.33098 39.7008 7.5 40.0352 7.5H42" stroke="white"/>
<g clip-path="url(#clip1_31_3)">
<path d="M51 18V2C51 1.44772 51.4477 1 52 1H73C73.5523 1 74 1.44772 74 2V18M51 18V23C51 23.5523 51.4477 24 52 24H73C73.5523 24 74 23.5523 74 23V18M51 18H54.5M74 18H72.5M72.5 18L69.1184 10.7538C69.041 10.5878 68.9214 10.4428 68.7583 10.3593C68.1792 10.0627 67.1906 9.80943 66.5 10.5C65.8589 11.1411 64.5327 13.1096 63.6023 14.5524C63.2781 15.0552 62.5899 15.1719 62.1227 14.7982L60.5 13.5C59.8333 12.8333 58.2 11.9 57 13.5C55.5 15.5 54.5 16.5 54.5 18M72.5 18H54.5M56 9H60.901C60.9668 9 61.0323 8.99409 61.0964 8.97892C61.9477 8.77729 63.385 8.04018 63 6.5C62.5 4.5 61.5 4 60.5 4C59.5 4 60 4.5 58 5.5C56 6.5 55 6 55 7C55 8 55 9 56 9Z" stroke="white"/>
</g>
<path d="M84 10V11M88 10V11M92 10V11M76 17V4C76 3.44772 76.4477 3 77 3H98C98.5523 3 99 3.44772 99 4V17C99 17.5523 98.5523 18 98 18H83.4142C83.149 18 82.8946 18.1054 82.7071 18.2929L80.7071 20.2929C80.0771 20.9229 79 20.4767 79 19.5858V19C79 18.4477 78.5523 18 78 18H77C76.4477 18 76 17.5523 76 17Z" stroke="white"/>
<path d="M103 20H105M103 17H105M103 14H105M103 11H105M103 8H105M103 5H105M119 4V3C119 2.44772 118.552 2 118 2H105C104.448 2 104 2.44772 104 3V22C104 22.5523 104.448 23 105 23H118C118.552 23 119 22.5523 119 22V20M119 4H121C121.552 4 122 4.44772 122 5V8M119 4V8M119 20H121C121.552 20 122 19.5523 122 19V16M119 20V16M119 16H122M119 16V12M122 16V12M119 12H122M119 12V8M122 12V8M119 8H122M115 7V9C115 9.55228 114.552 10 114 10H110C109.448 10 109 9.55228 109 9V7C109 6.44772 109.448 6 110 6H114C114.552 6 115 6.44772 115 7Z" stroke="white"/>
</g>
<defs>
<clipPath id="clip0_31_3">
<rect width="125" height="25" fill="white"/>
</clipPath>
<clipPath id="clip1_31_3">
<rect width="25" height="25" fill="white" transform="translate(50)"/>
</clipPath>
</defs>
</svg>
